<?xml version="1.0" encoding="UTF-8" standalone="no"?>
<!DOCTYPE svg PUBLIC "-//W3C//DTD SVG 1.1//EN" "http://www.w3.org/Graphics/SVG/1.1/DTD/svg11.dtd">
<svg version="1.1" xmlns="http://www.w3.org/2000/svg" xmlns:xlink="http://www.w3.org/1999/xlink" preserveAspectRatio="xMidYMid meet" viewBox="0 0 640 640" width="640" height="640"><defs><path d="M532.54 277.68C537.26 277.68 541.08 281.5 541.08 286.22C541.08 287.93 541.08 284.51 541.08 286.22C541.08 290.94 537.26 294.77 532.54 294.77C437.44 294.77 160.7 294.77 65.61 294.77C60.89 294.77 57.06 290.94 57.06 286.22C57.06 284.51 57.06 287.93 57.06 286.22C57.06 281.5 60.89 277.68 65.61 277.68C160.7 277.68 437.44 277.68 532.54 277.68Z" id="a29u2Q3ld4"></path><path d="M604.82 281.36C609.26 283.26 609.34 289.52 604.95 291.54C602.67 292.58 607.24 290.49 604.95 291.54C604.95 291.54 582.24 302.26 582.24 302.26C571 307.73 548.57 318.64 537.33 324.11C532.12 326.65 526.04 322.85 526.04 317.05C526.04 303.17 526.04 274.09 526.04 260.22C526.04 254.27 532.12 250.26 537.59 252.6C553.34 259.34 589.07 274.62 604.82 281.36Z" id="a9dj3smjV"></path><path d="M160.49 276.98C164.27 278.6 163.12 284.23 159.01 284.23C154.9 284.23 161 284.23 156.89 284.23C156.89 284.23 120.01 284.23 120.01 284.23C103.88 284.23 73.92 284.23 57.79 284.23C47.9 284.23 40.17 275.72 41.12 265.88C41.86 258.2 42.31 253.52 43.05 245.84C43.92 236.76 53.38 231.15 61.77 234.74C84.9 244.64 137.36 267.08 160.49 276.98Z" id="fZGNHmU9e"></path><path d="M160.52 296.93C164.7 294.75 163.15 288.42 158.43 288.42C154.32 288.42 160.43 288.42 156.32 288.42C156.32 288.42 119.44 288.42 119.44 288.42C103.31 288.42 73.35 288.42 57.21 288.42C47.28 288.42 39.45 296.89 40.23 306.8C41.04 316.92 41.99 328.92 42.79 339.05C43.48 347.77 52.84 352.95 60.6 348.92C83.86 336.82 137.26 309.03 160.52 296.93Z" id="fCXhmSWQx"></path></defs><g><g><g><use xlink:href="#a29u2Q3ld4" opacity="1" fill="#834d49" fill-opacity="1"></use></g><g><use xlink:href="#a9dj3smjV" opacity="1" fill="#c9c9c9" fill-opacity="1"></use></g><g><use xlink:href="#fZGNHmU9e" opacity="1" fill="#000000" fill-opacity="1"></use></g><g><use xlink:href="#fCXhmSWQx" opacity="1" fill="#080808" fill-opacity="1"></use></g></g></g></svg>